<svg xmlns="http://www.w3.org/2000/svg" xmlns:xlink="http://www.w3.org/1999/xlink" xmlns:lucid="lucid" width="1302.04" height="699.41"><g transform="translate(0 0)" lucid:page-tab-id="SPiqDHIZuCjf"><path d="M40 200V40h40v160zM40 200h40v200H40zM40 400h40v120H40zM80 660H40V520h40z" stroke="#666" fill="#a3d977"/><path d="M80 40h1180v160H80zM80 200h1180v200H80zM80 400h1180v120H80zM1260 520v140H80V520z" stroke="#666" fill-opacity="0"/><use xlink:href="#a" transform="matrix(-1.8369701987210297e-16,-1,1,-1.8369701987210297e-16,40.000000000000014,200) translate(68.33333333333333 24)"/><use xlink:href="#b" transform="matrix(-1.8369701987210297e-16,-1,1,-1.8369701987210297e-16,40,400) translate(56.222222222222214 24)"/><use xlink:href="#c" transform="matrix(-1.8369701987210297e-16,-1,1,-1.8369701987210297e-16,40,520) translate(45.58333333333333 24)"/><use xlink:href="#d" transform="matrix(-1.8369701987210297e-16,-1,1,-1.8369701987210297e-16,40,660) translate(35.08333333333333 24)"/><path d="M187.32 147.53v89.74" stroke="#333" fill="none"/><path d="M187.82 147.54h-1v-.5h1z" fill="#333"/><path d="M187.32 252.04l-4.63-14.27h9.26z" stroke="#333" fill="#333"/><path d="M500.33 244.8c3.53-2.65 9.26-2.65 12.8 0l54.22 40.67c3.54 2.65 3.54 6.95 0 9.6l-54.22 40.67c-3.54 2.65-9.27 2.65-12.8 0l-54.23-40.67c-3.53-2.65-3.53-6.95 0-9.6z" stroke="#75b2ff" stroke-width="3" fill="#fff"/><use xlink:href="#e" transform="matrix(1,0,0,1,444.5011185393519,244.80000000000047) translate(44.005 48.525)"/><path d="M546.94 80c14.8 0 26.8 15 26.8 33.5 0 18.52-12 33.53-26.8 33.53H466.5c-14.8 0-26.8-15-26.8-33.52 0-18.5 12-33.5 26.8-33.5z" stroke="#000" stroke-opacity="0" stroke-width="2" fill="#c92d39"/><use xlink:href="#f" transform="matrix(1,0,0,1,444.501118539352,84.8) translate(39.55 21.225)"/><use xlink:href="#g" transform="matrix(1,0,0,1,444.501118539352,84.8) translate(26.524999999999995 42.825)"/><path d="M120.3 261.65c0-4.42 3.58-8 8-8h118.05c4.42 0 8 3.58 8 8v57.23c0 4.42-3.58 8-8 8H128.3c-4.42 0-8-3.58-8-8z" stroke="#000" stroke-opacity="0" stroke-width="2" fill="#3278ca"/><use xlink:href="#h" transform="matrix(1,0,0,1,125.09888131372739,258.4532257864411) translate(26.5 34.4)"/><path d="M240 428c0-4.42 3.58-8 8-8h118.05c4.42 0 8 3.58 8 8v57.23c0 4.42-3.58 8-8 8H248c-4.42 0-8-3.58-8-8z" stroke="#000" stroke-opacity="0" stroke-width="2" fill="#3278ca"/><use xlink:href="#i" transform="matrix(1,0,0,1,244.8,424.8) translate(23.1 34.4)"/><use xlink:href="#j" transform="matrix(1,0,0,1,244.8,424.8) translate(78.05000000000001 34.4)"/><path d="M254.85 290.27h40.18c6.62 0 12 5.37 12 12v101.35" stroke="#333" fill="none"/><path d="M254.86 290.77h-.5v-1h.5z" fill="#333"/><path d="M307.03 418.38l-4.64-14.26h9.26z" stroke="#333" fill="#333"/><path d="M374.55 456.62h21.58c6.63 0 12-5.38 12-12v-144.2c0-6.63 5.38-12 12-12h5.7" stroke="#333" fill="none"/><path d="M374.56 457.12h-.5v-1h.5z" fill="#333"/><path d="M440.6 288.42l-14.27 4.64v-9.27z" stroke="#333" fill="#333"/><path d="M607.53 537h-1V414.8h1zm-9.26-246.8l3 1.23 2.6 2 2 2.6 1.23 3 .43 3.2v90.98h-1v-90.9l-.4-3-1.14-2.77-1.85-2.4-2.4-1.82-2.74-1.14-3-.4h-23.1v-1h23.16z" fill="#333"/><path d="M571.9 290.77h-.53l.04-1h.5zM607.03 551.77l-4.64-14.27h9.26z" fill="#333"/><path d="M607.03 553.38L601.7 537h10.65zM603.08 538l3.95 12.15 3.94-12.15z" fill="#333"/><use xlink:href="#k" transform="matrix(1,0,0,1,592.3502701742494,393.21071036709793) translate(0.005000000000000782 14.4)"/><path d="M507.23 240.9h-1v-16.1h1zm0-37.7h-1v-39.8h1z" fill="#333"/><path d="M507.23 241.42h-1v-.52h1zM511.36 162.9h-9.27l4.63-14.26z" fill="#333"/><path d="M512.05 163.4H501.4l5.33-16.37zm-9.27-1h7.9l-3.95-12.14z" fill="#333"/><use xlink:href="#l" transform="matrix(1,0,0,1,495.2513885666807,203.19880444679183) translate(0.005000000000000782 14.4)"/><path d="M227.54 80c14.8 0 26.8 15 26.8 33.5 0 18.52-12 33.53-26.8 33.53H147.1c-14.8 0-26.8-15-26.8-33.52 0-18.5 12-33.5 26.8-33.5z" stroke="#000" stroke-opacity="0" stroke-width="2" fill="#225798"/><use xlink:href="#m" transform="matrix(1,0,0,1,125.09888131372739,84.8) translate(39.55 32.1)"/><path d="M540 561.38c0-4.4 3.58-8 8-8h118.05c4.42 0 8 3.6 8 8v57.24c0 4.4-3.58 8-8 8H548c-4.42 0-8-3.6-8-8z" stroke="#000" stroke-opacity="0" stroke-width="2" fill="#3278ca"/><use xlink:href="#i" transform="matrix(1,0,0,1,544.8,558.1842731557535) translate(16.525 26.4)"/><use xlink:href="#n" transform="matrix(1,0,0,1,544.8,558.1842731557535) translate(71.475 26.4)"/><use xlink:href="#o" transform="matrix(1,0,0,1,544.8,558.1842731557535) translate(39.55 48)"/><path d="M760.63 251.22c3.53-2.65 9.26-2.65 12.8 0l54.22 40.67c3.54 2.64 3.54 6.94 0 9.6l-54.22 40.65c-3.54 2.66-9.27 2.66-12.8 0L706.4 301.5c-3.53-2.66-3.53-6.96 0-9.6z" stroke="#75b2ff" stroke-width="3" fill="#fff"/><use xlink:href="#e" transform="matrix(1,0,0,1,704.7999999999996,251.21706956321788) translate(44.005 48.525)"/><path d="M674.55 590h80.48c6.62 0 12-5.37 12-12V361.93" stroke="#333" fill="none"/><path d="M674.56 590.5h-.5v-1h.5z" fill="#333"/><path d="M767.03 347.16l4.63 14.27h-9.27z" stroke="#333" fill="#333"/><path d="M767.53 247.33h-1V224.8h1zm0-44.13h-1v-28.02h1z" fill="#333"/><path d="M767.53 247.84h-1v-.52h1zM771.66 174.68h-9.27l4.63-14.26z" fill="#333"/><path d="M772.35 175.18H761.7l5.33-16.38zm-9.27-1h7.9l-3.95-12.14z" fill="#333"/><use xlink:href="#k" transform="matrix(1,0,0,1,752.3502700273285,203.19880444679188) translate(0.005000000000000782 14.4)"/><path d="M806.28 81.2c14.8 0 26.8 17.37 26.8 38.8 0 21.43-12 38.8-26.8 38.8h-80.43c-14.8 0-26.8-17.37-26.8-38.8 0-21.43 12-38.8 26.8-38.8z" stroke="#000" stroke-opacity="0" stroke-width="2" fill="#19967d"/><use xlink:href="#p" transform="matrix(1,0,0,1,703.8426138918803,86.00000000000023) translate(21.09999999999999 17.6)"/><use xlink:href="#q" transform="matrix(1,0,0,1,703.8426138918803,86.00000000000023) translate(72 17.6)"/><use xlink:href="#r" transform="matrix(1,0,0,1,703.8426138918803,86.00000000000023) translate(12.075 39.2)"/><use xlink:href="#s" transform="matrix(1,0,0,1,703.8426138918803,86.00000000000023) translate(40.925 39.2)"/><use xlink:href="#t" transform="matrix(1,0,0,1,703.8426138918803,86.00000000000023) translate(75.925 39.2)"/><use xlink:href="#u" transform="matrix(1,0,0,1,703.8426138918803,86.00000000000023) translate(39.55 60.800000000000004)"/><path d="M803.14 428c0-4.42 3.58-8 8-8H929.2c4.4 0 8 3.58 8 8v57.23c0 4.42-3.6 8-8 8H811.13c-4.42 0-8-3.58-8-8z" stroke="#000" stroke-opacity="0" stroke-width="2" fill="#3278ca"/><use xlink:href="#v" transform="matrix(1,0,0,1,807.9404625339565,424.8) translate(20.125 34.4)"/><use xlink:href="#j" transform="matrix(1,0,0,1,807.9404625339565,424.8) translate(81.025 34.4)"/><path d="M870.67 403.62h-1v-53.7h1zm-9.26-107l3 1.23 2.6 2 2 2.6 1.25 3 .42 3.2v19.66h-1v-19.58l-.4-3.02-1.14-2.75-1.84-2.4-2.4-1.83-2.75-1.14-3.02-.4H832.2v-1h26z" fill="#333"/><path d="M832.2 297.2h-.53l.04-1h.5zM870.17 418.38l-4.64-14.26h9.27z" fill="#333"/><path d="M870.17 420l-5.33-16.38h10.65zm-3.95-15.38l3.95 12.14 3.94-12.14z" fill="#333"/><use xlink:href="#l" transform="matrix(1,0,0,1,858.690732708206,328.3063180341754) translate(0.005000000000000782 14.4)"/><path d="M977.65 251.22c3.54-2.65 9.27-2.65 12.8 0l54.23 40.67c3.53 2.64 3.53 6.94 0 9.6l-54.23 40.65c-3.53 2.66-9.26 2.66-12.8 0l-54.22-40.66c-3.54-2.66-3.54-6.96 0-9.6z" stroke="#75b2ff" stroke-width="3" fill="#fff"/><use xlink:href="#e" transform="matrix(1,0,0,1,921.8252703211695,251.21706956321776) translate(44.005 48.525)"/><path d="M937.7 456.62h34.35c6.63 0 12-5.38 12-12v-82.7" stroke="#333" fill="none"/><path d="M937.7 457.12h-.5v-1h.5z" fill="#333"/><path d="M984.05 347.16l4.64 14.27h-9.28z" stroke="#333" fill="#333"/><path d="M1024.27 81.2c14.8 0 26.8 17.37 26.8 38.8 0 21.43-12 38.8-26.8 38.8h-80.43c-14.8 0-26.8-17.37-26.8-38.8 0-21.43 12-38.8 26.8-38.8z" stroke="#000" stroke-opacity="0" stroke-width="2" fill="#c92d39"/><use xlink:href="#p" transform="matrix(1,0,0,1,921.8252700273287,86.00000000000023) translate(21.09999999999999 26.1)"/><use xlink:href="#q" transform="matrix(1,0,0,1,921.8252700273287,86.00000000000023) translate(72 26.1)"/><use xlink:href="#r" transform="matrix(1,0,0,1,921.8252700273287,86.00000000000023) translate(12.099999999999998 47.699999999999996)"/><use xlink:href="#g" transform="matrix(1,0,0,1,921.8252700273287,86.00000000000023) translate(40.949999999999996 47.699999999999996)"/><path d="M984.55 247.33h-1V227h1zm0-41.94h-1v-30.22h1z" fill="#333"/><path d="M984.55 247.84h-1v-.52h1zM988.7 174.68h-9.28l4.63-14.26z" fill="#333"/><path d="M989.37 175.18h-10.64l5.32-16.38zm-9.27-1h7.9l-3.95-12.14z" fill="#333"/><g><use xlink:href="#k" transform="matrix(1,0,0,1,969.3755403484986,205.3907475083819) translate(0.005000000000000782 14.4)"/></g><path d="M1208 80c17.67 0 32 17.9 32 40s-14.33 40-32 40h-96c-17.67 0-32-17.9-32-40s14.33-40 32-40z" stroke="#000" stroke-opacity="0" stroke-width="2" fill="#c92d39"/><g><use xlink:href="#p" transform="matrix(1,0,0,1,1084.8,84.80000000000022) translate(15.624999999999996 28.69375)"/><use xlink:href="#w" transform="matrix(1,0,0,1,1084.8,84.80000000000022) translate(66.525 28.69375)"/><use xlink:href="#x" transform="matrix(1,0,0,1,1084.8,84.80000000000022) translate(111.525 28.69375)"/><use xlink:href="#y" transform="matrix(1,0,0,1,1084.8,84.80000000000022) translate(30.05 50.293749999999996)"/></g><path d="M1160.5 284.72l-.42 3.2-1.24 3-2 2.6-2.6 2-3 1.25-3.2.42h-98.82v-1h98.75l3-.4 2.77-1.15 2.4-1.84 1.82-2.38 1.14-2.75.4-3.02v-51.3h1zm0-72.97h-1v-35.37h1z" fill="#333"/><path d="M1049.23 297.2h-.53l.04-1h.5zM1164.64 175.88h-9.28l4.64-14.26z" fill="#333"/><path d="M1165.32 176.38h-10.64L1160 160zm-9.27-1h7.9l-3.95-12.14z" fill="#333"/><g><use xlink:href="#l" transform="matrix(1,0,0,1,1148.5250000000003,211.75300754772957) translate(0.005000000000000782 14.4)"/></g><defs><path fill="#333" d="M15-91v-56l181-69v40L49-119l147 57v40" id="z"/><path fill="#333" d="M15-22v-40l146-57-146-57v-40l181 69v56" id="A"/><g id="a"><use transform="matrix(0.05555555555555555,0,0,0.05555555555555555,0,0)" xlink:href="#z"/><use transform="matrix(0.05555555555555555,0,0,0.05555555555555555,11.666666666666666,0)" xlink:href="#A"/></g><path fill="#333" d="M190-63c-7 42-38 67-86 67-59 0-84-38-90-98-12-110 154-137 174-36l-49 2c-2-19-15-32-35-32-30 0-35 28-38 64-6 74 65 87 74 30" id="B"/><path fill="#333" d="M114-157C55-157 80-60 75 0H25v-261h50l-1 109c12-26 28-41 61-42 86-1 58 113 63 194h-50c-7-57 23-157-34-157" id="C"/><path fill="#333" d="M185-48c-13 30-37 53-82 52C43 2 14-33 14-96s30-98 90-98c62 0 83 45 84 108H66c0 31 8 55 39 56 18 0 30-7 34-22zm-45-69c5-46-57-63-70-21-2 6-4 13-4 21h74" id="D"/><path fill="#333" d="M147 0L96-86 75-71V0H25v-261h50v150l67-79h53l-66 74L201 0h-54" id="E"/><path fill="#333" d="M110-194c64 0 96 36 96 99 0 64-35 99-97 99-61 0-95-36-95-99 0-62 34-99 96-99zm-1 164c35 0 45-28 45-65 0-40-10-65-43-65-34 0-45 26-45 65 0 36 10 65 43 65" id="F"/><path fill="#333" d="M85 4C-2 5 27-109 22-190h50c7 57-23 150 33 157 60-5 35-97 40-157h50l1 190h-47c-2-12 1-28-3-38-12 25-28 42-61 42" id="G"/><path fill="#333" d="M115-3C79 11 28 4 28-45v-112H4v-33h27l15-45h31v45h36v33H77v99c-1 23 16 31 38 25v30" id="H"/><g id="b"><use transform="matrix(0.05555555555555555,0,0,0.05555555555555555,0,0)" xlink:href="#B"/><use transform="matrix(0.05555555555555555,0,0,0.05555555555555555,11.11111111111111,0)" xlink:href="#C"/><use transform="matrix(0.05555555555555555,0,0,0.05555555555555555,23.27777777777778,0)" xlink:href="#D"/><use transform="matrix(0.05555555555555555,0,0,0.05555555555555555,34.388888888888886,0)" xlink:href="#B"/><use transform="matrix(0.05555555555555555,0,0,0.05555555555555555,45.5,0)" xlink:href="#E"/><use transform="matrix(0.05555555555555555,0,0,0.05555555555555555,56.611111111111114,0)" xlink:href="#F"/><use transform="matrix(0.05555555555555555,0,0,0.05555555555555555,68.77777777777779,0)" xlink:href="#G"/><use transform="matrix(0.05555555555555555,0,0,0.05555555555555555,80.94444444444446,0)" xlink:href="#H"/></g><path fill="#333" d="M135-194c52 0 70 43 70 98 0 56-19 99-73 100-30 1-46-15-58-35L72 0H24l1-261h50v104c11-23 29-37 60-37zM114-30c31 0 40-27 40-66 0-37-7-63-39-63s-41 28-41 65c0 36 8 64 40 64" id="I"/><path fill="#333" d="M25-224v-37h50v37H25zM25 0v-190h50V0H25" id="J"/><path fill="#333" d="M25 0v-261h50V0H25" id="K"/><g id="c"><use transform="matrix(0.05555555555555555,0,0,0.05555555555555555,0,0)" xlink:href="#I"/><use transform="matrix(0.05555555555555555,0,0,0.05555555555555555,12.166666666666666,0)" xlink:href="#J"/><use transform="matrix(0.05555555555555555,0,0,0.05555555555555555,17.72222222222222,0)" xlink:href="#K"/><use transform="matrix(0.05555555555555555,0,0,0.05555555555555555,23.27777777777778,0)" xlink:href="#K"/></g><path fill="#333" d="M195-6C206 82 75 100 31 46c-4-6-6-13-8-21l49-6c3 16 16 24 34 25 40 0 42-37 40-79-11 22-30 35-61 35-53 0-70-43-70-97 0-56 18-96 73-97 30 0 46 14 59 34l2-30h47zm-90-29c32 0 41-27 41-63 0-35-9-62-40-62-32 0-39 29-40 63 0 36 9 62 39 62" id="L"/><path fill="#333" d="M137-138c1-29-70-34-71-4 15 46 118 7 119 86 1 83-164 76-172 9l43-7c4 19 20 25 44 25 33 8 57-30 24-41C81-84 22-81 20-136c-2-80 154-74 161-7" id="M"/><g id="d"><use transform="matrix(0.05555555555555555,0,0,0.05555555555555555,0,0)" xlink:href="#K"/><use transform="matrix(0.05555555555555555,0,0,0.05555555555555555,5.555555555555555,0)" xlink:href="#F"/><use transform="matrix(0.05555555555555555,0,0,0.05555555555555555,17.72222222222222,0)" xlink:href="#L"/><use transform="matrix(0.05555555555555555,0,0,0.05555555555555555,29.888888888888886,0)" xlink:href="#J"/><use transform="matrix(0.05555555555555555,0,0,0.05555555555555555,35.44444444444444,0)" xlink:href="#M"/><use transform="matrix(0.05555555555555555,0,0,0.05555555555555555,46.55555555555556,0)" xlink:href="#H"/><use transform="matrix(0.05555555555555555,0,0,0.05555555555555555,53.16666666666667,0)" xlink:href="#J"/><use transform="matrix(0.05555555555555555,0,0,0.05555555555555555,58.72222222222223,0)" xlink:href="#B"/></g><path fill="#333" d="M140-251c81 0 123 46 123 126C263-46 219 4 140 4 59 4 17-45 17-125s42-126 123-126zm0 227c63 0 89-41 89-101s-29-99-89-99c-61 0-89 39-89 99S79-25 140-24" id="N"/><path fill="#333" d="M194 0L95-120 63-95V0H30v-248h33v124l119-124h40L117-140 236 0h-42" id="O"/><path fill="#333" d="M103-251c84 0 111 97 45 133-19 10-37 24-39 52H78c0-63 77-55 77-114 0-30-21-42-52-43-32 0-53 17-56 46l-32-2c7-45 34-72 88-72zM77 0v-35h34V0H77" id="P"/><g id="e"><use transform="matrix(0.05,0,0,0.05,0,0)" xlink:href="#N"/><use transform="matrix(0.05,0,0,0.05,14,0)" xlink:href="#O"/><use transform="matrix(0.05,0,0,0.05,26,0)" xlink:href="#P"/></g><path fill="#fff" d="M140-251c81 0 123 46 123 126C263-46 219 4 140 4 59 4 17-45 17-125s42-126 123-126zm0 227c63 0 89-41 89-101s-29-99-89-99c-61 0-89 39-89 99S79-25 140-24" id="Q"/><path fill="#fff" d="M114-163C36-179 61-72 57 0H25l-1-190h30c1 12-1 29 2 39 6-27 23-49 58-41v29" id="R"/><path fill="#fff" d="M85-194c31 0 48 13 60 33l-1-100h32l1 261h-30c-2-10 0-23-3-31C134-8 116 4 85 4 32 4 16-35 15-94c0-66 23-100 70-100zm9 24c-40 0-46 34-46 75 0 40 6 74 45 74 42 0 51-32 51-76 0-42-9-74-50-73" id="S"/><path fill="#fff" d="M100-194c63 0 86 42 84 106H49c0 40 14 67 53 68 26 1 43-12 49-29l28 8c-11 28-37 45-77 45C44 4 14-33 15-96c1-61 26-98 85-98zm52 81c6-60-76-77-97-28-3 7-6 17-6 28h103" id="T"/><g id="f"><use transform="matrix(0.05,0,0,0.05,0,0)" xlink:href="#Q"/><use transform="matrix(0.05,0,0,0.05,14,0)" xlink:href="#R"/><use transform="matrix(0.05,0,0,0.05,19.95,0)" xlink:href="#S"/><use transform="matrix(0.05,0,0,0.05,29.950000000000003,0)" xlink:href="#T"/><use transform="matrix(0.05,0,0,0.05,39.95,0)" xlink:href="#R"/></g><path fill="#fff" d="M96-169c-40 0-48 33-48 73s9 75 48 75c24 0 41-14 43-38l32 2c-6 37-31 61-74 61-59 0-76-41-82-99-10-93 101-131 147-64 4 7 5 14 7 22l-32 3c-4-21-16-35-41-35" id="U"/><path fill="#fff" d="M141-36C126-15 110 5 73 4 37 3 15-17 15-53c-1-64 63-63 125-63 3-35-9-54-41-54-24 1-41 7-42 31l-33-3c5-37 33-52 76-52 45 0 72 20 72 64v82c-1 20 7 32 28 27v20c-31 9-61-2-59-35zM48-53c0 20 12 33 32 33 41-3 63-29 60-74-43 2-92-5-92 41" id="V"/><path fill="#fff" d="M117-194c89-4 53 116 60 194h-32v-121c0-31-8-49-39-48C34-167 62-67 57 0H25l-1-190h30c1 10-1 24 2 32 11-22 29-35 61-36" id="W"/><path fill="#fff" d="M24 0v-261h32V0H24" id="X"/><g id="g"><use transform="matrix(0.05,0,0,0.05,0,0)" xlink:href="#U"/><use transform="matrix(0.05,0,0,0.05,9,0)" xlink:href="#V"/><use transform="matrix(0.05,0,0,0.05,19,0)" xlink:href="#W"/><use transform="matrix(0.05,0,0,0.05,29,0)" xlink:href="#U"/><use transform="matrix(0.05,0,0,0.05,38,0)" xlink:href="#T"/><use transform="matrix(0.05,0,0,0.05,48,0)" xlink:href="#X"/><use transform="matrix(0.05,0,0,0.05,51.95,0)" xlink:href="#T"/><use transform="matrix(0.05,0,0,0.05,61.95,0)" xlink:href="#S"/></g><path fill="#fff" d="M106-169C34-169 62-67 57 0H25v-261h32l-1 103c12-21 28-36 61-36 89 0 53 116 60 194h-32v-121c2-32-8-49-39-48" id="Y"/><path fill="#fff" d="M143 0L79-87 56-68V0H24v-261h32v163l83-92h37l-77 82L181 0h-38" id="Z"/><path fill="#fff" d="M100-194c62-1 85 37 85 99 1 63-27 99-86 99S16-35 15-95c0-66 28-99 85-99zM99-20c44 1 53-31 53-75 0-43-8-75-51-75s-53 32-53 75 10 74 51 75" id="aa"/><path fill="#fff" d="M84 4C-5 8 30-112 23-190h32v120c0 31 7 50 39 49 72-2 45-101 50-169h31l1 190h-30c-1-10 1-25-2-33-11 22-28 36-60 37" id="ab"/><path fill="#fff" d="M59-47c-2 24 18 29 38 22v24C64 9 27 4 27-40v-127H5v-23h24l9-43h21v43h35v23H59v120" id="ac"/><g id="h"><use transform="matrix(0.05,0,0,0.05,0,0)" xlink:href="#U"/><use transform="matrix(0.05,0,0,0.05,9,0)" xlink:href="#Y"/><use transform="matrix(0.05,0,0,0.05,19,0)" xlink:href="#T"/><use transform="matrix(0.05,0,0,0.05,29,0)" xlink:href="#U"/><use transform="matrix(0.05,0,0,0.05,38,0)" xlink:href="#Z"/><use transform="matrix(0.05,0,0,0.05,47,0)" xlink:href="#aa"/><use transform="matrix(0.05,0,0,0.05,57,0)" xlink:href="#ab"/><use transform="matrix(0.05,0,0,0.05,67,0)" xlink:href="#ac"/></g><g id="i"><use transform="matrix(0.05,0,0,0.05,0,0)" xlink:href="#U"/><use transform="matrix(0.05,0,0,0.05,9,0)" xlink:href="#R"/><use transform="matrix(0.05,0,0,0.05,14.949999999999998,0)" xlink:href="#T"/><use transform="matrix(0.05,0,0,0.05,24.95,0)" xlink:href="#V"/><use transform="matrix(0.05,0,0,0.05,34.95,0)" xlink:href="#ac"/><use transform="matrix(0.05,0,0,0.05,39.95,0)" xlink:href="#T"/></g><path fill="#fff" d="M160-131c35 5 61 23 61 61C221 17 115-2 30 0v-248c76 3 177-17 177 60 0 33-19 50-47 57zm-97-11c50-1 110 9 110-42 0-47-63-36-110-37v79zm0 115c55-2 124 14 124-45 0-56-70-42-124-44v89" id="ad"/><path fill="#fff" d="M24-231v-30h32v30H24zM24 0v-190h32V0H24" id="ae"/><g id="j"><use transform="matrix(0.05,0,0,0.05,0,0)" xlink:href="#ad"/><use transform="matrix(0.05,0,0,0.05,12,0)" xlink:href="#ae"/><use transform="matrix(0.05,0,0,0.05,15.949999999999998,0)" xlink:href="#X"/><use transform="matrix(0.05,0,0,0.05,19.9,0)" xlink:href="#X"/></g><path fill="#333" d="M137-103V0h-34v-103L8-248h37l75 118 75-118h37" id="af"/><path fill="#333" d="M100-194c63 0 86 42 84 106H49c0 40 14 67 53 68 26 1 43-12 49-29l28 8c-11 28-37 45-77 45C44 4 14-33 15-96c1-61 26-98 85-98zm52 81c6-60-76-77-97-28-3 7-6 17-6 28h103" id="ag"/><path fill="#333" d="M135-143c-3-34-86-38-87 0 15 53 115 12 119 90S17 21 10-45l28-5c4 36 97 45 98 0-10-56-113-15-118-90-4-57 82-63 122-42 12 7 21 19 24 35" id="ah"/><g id="k"><use transform="matrix(0.05,0,0,0.05,0,0)" xlink:href="#af"/><use transform="matrix(0.05,0,0,0.05,10.35,0)" xlink:href="#ag"/><use transform="matrix(0.05,0,0,0.05,20.35,0)" xlink:href="#ah"/></g><path fill="#333" d="M190 0L58-211 59 0H30v-248h39L202-35l-2-213h31V0h-41" id="ai"/><path fill="#333" d="M100-194c62-1 85 37 85 99 1 63-27 99-86 99S16-35 15-95c0-66 28-99 85-99zM99-20c44 1 53-31 53-75 0-43-8-75-51-75s-53 32-53 75 10 74 51 75" id="aj"/><g id="l"><use transform="matrix(0.05,0,0,0.05,0,0)" xlink:href="#ai"/><use transform="matrix(0.05,0,0,0.05,12.950000000000001,0)" xlink:href="#aj"/></g><g id="m"><use transform="matrix(0.05,0,0,0.05,0,0)" xlink:href="#Q"/><use transform="matrix(0.05,0,0,0.05,14,0)" xlink:href="#R"/><use transform="matrix(0.05,0,0,0.05,19.95,0)" xlink:href="#S"/><use transform="matrix(0.05,0,0,0.05,29.950000000000003,0)" xlink:href="#T"/><use transform="matrix(0.05,0,0,0.05,39.95,0)" xlink:href="#R"/></g><path fill="#fff" d="M185-189c-5-48-123-54-124 2 14 75 158 14 163 119 3 78-121 87-175 55-17-10-28-26-33-46l33-7c5 56 141 63 141-1 0-78-155-14-162-118-5-82 145-84 179-34 5 7 8 16 11 25" id="ak"/><g id="n"><use transform="matrix(0.05,0,0,0.05,0,0)" xlink:href="#ak"/><use transform="matrix(0.05,0,0,0.05,12,0)" xlink:href="#T"/><use transform="matrix(0.05,0,0,0.05,22,0)" xlink:href="#W"/><use transform="matrix(0.05,0,0,0.05,32,0)" xlink:href="#ac"/></g><g id="o"><use transform="matrix(0.05,0,0,0.05,0,0)" xlink:href="#Q"/><use transform="matrix(0.05,0,0,0.05,14,0)" xlink:href="#R"/><use transform="matrix(0.05,0,0,0.05,19.95,0)" xlink:href="#S"/><use transform="matrix(0.05,0,0,0.05,29.950000000000003,0)" xlink:href="#T"/><use transform="matrix(0.05,0,0,0.05,39.95,0)" xlink:href="#R"/></g><g id="p"><use transform="matrix(0.05,0,0,0.05,0,0)" xlink:href="#Q"/><use transform="matrix(0.05,0,0,0.05,14,0)" xlink:href="#R"/><use transform="matrix(0.05,0,0,0.05,19.95,0)" xlink:href="#S"/><use transform="matrix(0.05,0,0,0.05,29.950000000000003,0)" xlink:href="#T"/><use transform="matrix(0.05,0,0,0.05,39.95,0)" xlink:href="#R"/></g><path fill="#fff" d="M206 0h-36l-40-164L89 0H53L-1-190h32L70-26l43-164h34l41 164 42-164h31" id="al"/><g id="q"><use transform="matrix(0.05,0,0,0.05,0,0)" xlink:href="#al"/><use transform="matrix(0.05,0,0,0.05,12.950000000000001,0)" xlink:href="#ae"/><use transform="matrix(0.05,0,0,0.05,16.900000000000002,0)" xlink:href="#ac"/><use transform="matrix(0.05,0,0,0.05,21.900000000000002,0)" xlink:href="#Y"/></g><g id="r"><use transform="matrix(0.05,0,0,0.05,0,0)" xlink:href="#ad"/><use transform="matrix(0.05,0,0,0.05,12,0)" xlink:href="#ae"/><use transform="matrix(0.05,0,0,0.05,15.949999999999998,0)" xlink:href="#X"/><use transform="matrix(0.05,0,0,0.05,19.9,0)" xlink:href="#X"/></g><g id="s"><use transform="matrix(0.05,0,0,0.05,0,0)" xlink:href="#V"/><use transform="matrix(0.05,0,0,0.05,10,0)" xlink:href="#W"/><use transform="matrix(0.05,0,0,0.05,20,0)" xlink:href="#S"/></g><g id="t"><use transform="matrix(0.05,0,0,0.05,0,0)" xlink:href="#ak"/><use transform="matrix(0.05,0,0,0.05,12,0)" xlink:href="#T"/><use transform="matrix(0.05,0,0,0.05,22,0)" xlink:href="#W"/><use transform="matrix(0.05,0,0,0.05,32,0)" xlink:href="#ac"/></g><g id="u"><use transform="matrix(0.05,0,0,0.05,0,0)" xlink:href="#Q"/><use transform="matrix(0.05,0,0,0.05,14,0)" xlink:href="#R"/><use transform="matrix(0.05,0,0,0.05,19.95,0)" xlink:href="#S"/><use transform="matrix(0.05,0,0,0.05,29.950000000000003,0)" xlink:href="#T"/><use transform="matrix(0.05,0,0,0.05,39.95,0)" xlink:href="#R"/></g><g id="v"><use transform="matrix(0.05,0,0,0.05,0,0)" xlink:href="#U"/><use transform="matrix(0.05,0,0,0.05,9,0)" xlink:href="#V"/><use transform="matrix(0.05,0,0,0.05,19,0)" xlink:href="#W"/><use transform="matrix(0.05,0,0,0.05,29,0)" xlink:href="#U"/><use transform="matrix(0.05,0,0,0.05,38,0)" xlink:href="#T"/><use transform="matrix(0.05,0,0,0.05,48,0)" xlink:href="#X"/><use transform="matrix(0.05,0,0,0.05,51.95,0)" xlink:href="#X"/></g><g id="w"><use transform="matrix(0.05,0,0,0.05,0,0)" xlink:href="#W"/><use transform="matrix(0.05,0,0,0.05,10,0)" xlink:href="#T"/><use transform="matrix(0.05,0,0,0.05,20,0)" xlink:href="#T"/><use transform="matrix(0.05,0,0,0.05,30,0)" xlink:href="#S"/></g><g id="x"><use transform="matrix(0.05,0,0,0.05,0,0)" xlink:href="#ad"/><use transform="matrix(0.05,0,0,0.05,12,0)" xlink:href="#ae"/><use transform="matrix(0.05,0,0,0.05,15.949999999999998,0)" xlink:href="#X"/><use transform="matrix(0.05,0,0,0.05,19.9,0)" xlink:href="#X"/></g><g id="y"><use transform="matrix(0.05,0,0,0.05,0,0)" xlink:href="#U"/><use transform="matrix(0.05,0,0,0.05,9,0)" xlink:href="#V"/><use transform="matrix(0.05,0,0,0.05,19,0)" xlink:href="#W"/><use transform="matrix(0.05,0,0,0.05,29,0)" xlink:href="#U"/><use transform="matrix(0.05,0,0,0.05,38,0)" xlink:href="#T"/><use transform="matrix(0.05,0,0,0.05,48,0)" xlink:href="#X"/><use transform="matrix(0.05,0,0,0.05,51.95,0)" xlink:href="#V"/><use transform="matrix(0.05,0,0,0.05,61.95,0)" xlink:href="#ac"/><use transform="matrix(0.05,0,0,0.05,66.95,0)" xlink:href="#ae"/><use transform="matrix(0.05,0,0,0.05,70.9,0)" xlink:href="#aa"/><use transform="matrix(0.05,0,0,0.05,80.9,0)" xlink:href="#W"/></g></defs></g></svg>